<svg width="27" height="27" viewBox="0 0 27 27" fill="none" xmlns="http://www.w3.org/2000/svg">
<path d="M11.8125 17.0269L8.78344 13.9978L7.59375 15.1875L11.8125 19.4063L19.4062 11.8125L18.2166 10.6144L11.8125 17.0269Z" fill="#16151C"/>
<path d="M21.0938 4.21875H18.5625V3.375C18.5625 2.92745 18.3847 2.49822 18.0682 2.18176C17.7518 1.86529 17.3226 1.6875 16.875 1.6875H10.125C9.67745 1.6875 9.24823 1.86529 8.93176 2.18176C8.61529 2.49822 8.4375 2.92745 8.4375 3.375V4.21875H5.90625C5.4587 4.21875 5.02947 4.39654 4.71301 4.71301C4.39654 5.02947 4.21875 5.4587 4.21875 5.90625V23.625C4.21875 24.0726 4.39654 24.5018 4.71301 24.8182C5.02947 25.1347 5.4587 25.3125 5.90625 25.3125H21.0938C21.5413 25.3125 21.9705 25.1347 22.287 24.8182C22.6035 24.5018 22.7812 24.0726 22.7812 23.625V5.90625C22.7812 5.4587 22.6035 5.02947 22.287 4.71301C21.9705 4.39654 21.5413 4.21875 21.0938 4.21875ZM10.125 3.375H16.875V6.75H10.125V3.375ZM21.0938 23.625H5.90625V5.90625H8.4375V8.4375H18.5625V5.90625H21.0938V23.625Z" fill="#16151C"/>
</svg>
